Coordinates
version=1
nRows=10
nColumns=63
inDegrees=yes

Units are S.I. units (second, meters, Newtons, ...)
If the header above contains a line with 'inDegrees', this indicates whether rotational values are in degrees (yes) or radians (no).

endheader
time	pelvis_tilt	pelvis_list	pelvis_rotation	pelvis_tx	pelvis_ty	pelvis_tz	hip_flexion_r	hip_adduction_r	hip_rotation_r	knee_angle_r	knee_angle_r_beta	ankle_angle_r	subtalar_angle_r	mtp_angle_r	hip_flexion_l	hip_adduction_l	hip_rotation_l	knee_angle_l	knee_angle_l_beta	ankle_angle_l	subtalar_angle_l	mtp_angle_l	L5_S1_Flex_Ext	L5_S1_Lat_Bending	L5_S1_axial_rotation	L4_L5_Flex_Ext	L4_L5_Lat_Bending	L4_L5_axial_rotation	L3_L4_Flex_Ext	L3_L4_Lat_Bending	L3_L4_axial_rotation	L2_L3_Flex_Ext	L2_L3_Lat_Bending	L2_L3_axial_rotation	L1_L2_Flex_Ext	L1_L2_Lat_Bending	L1_L2_axial_rotation	L1_T12_Flex_Ext	L1_T12_Lat_Bending	L1_T12_axial_rotation	Abs_r3	Abs_r2	Abs_r1	Abs_t1	Abs_t2	neck_flexion	neck_bending	neck_rotation	arm_flex_r	arm_add_r	arm_rot_r	elbow_flex_r	pro_sup_r	wrist_flex_r	wrist_dev_r	arm_flex_l	arm_add_l	arm_rot_l	elbow_flex_l	pro_sup_l	wrist_flex_l	wrist_dev_l
     15.00000000	     -0.45817675	     -8.91755675	     -3.33428606	     -1.61402713	      0.87217780	      0.27906703	     -1.74821741	      8.51373292	      0.43981604	      4.37184454	      0.07630308	      3.68299158	    -10.98866495	      0.00000000	     -3.05831348	    -11.09482083	    -11.43293220	      4.29922974	      0.07503571	      3.57350135	    -15.12786153	      0.00000000	     -0.00262289	      0.48484423	      0.17265877	     -0.00487097	      0.64484282	      0.18344994	     -0.00430915	      1.17885025	      0.18344994	     -0.00299770	      1.17885025	      0.15107642	     -0.00243562	      0.98869435	      0.14028525	     -0.00149872	      0.75102371	      0.12949408	     -0.01873506	      5.48465487	      0.96027627	      0.00000000	      0.00000000	     -0.00000000	      0.00000000	     -0.00000000	     -4.57491811	     -0.76751779	     -7.23401770	     28.17417599	     31.14796935	      0.00000000	      5.00000014	     -5.55446291	     12.05182376	    -43.93166272	     46.01984182	     33.25633761	      0.00000000	      5.00000014
     15.03333333	     -0.48268044	     -8.74403609	     -3.26082192	     -1.61397879	      0.87220457	      0.27854353	     -1.60631462	      8.41701099	      0.42660200	      4.63287482	      0.08085892	      3.92342495	    -11.71172251	      0.00000000	     -2.95992471	    -11.02425661	    -11.07034462	      4.38924739	      0.07660682	      3.63805796	    -14.82185764	      0.00000000	     -0.00045913	      0.48415756	      0.17481765	     -0.00085265	      0.64392955	      0.18574375	     -0.00075430	      1.17718068	      0.18574375	     -0.00052474	      1.17718068	      0.15296544	     -0.00042635	      0.98729409	      0.14203934	     -0.00026235	      0.74996005	      0.13111324	     -0.00327950	      5.47688710	      0.97228332	      0.00000000	      0.00000000	     -0.00000000	      0.00000000	     -0.00000000	     -4.57817843	     -0.74164951	     -7.55420951	     28.26672660	     30.98403575	      0.00000000	      5.00000014	     -5.42229428	     12.03039231	    -44.01113774	     45.60170094	     33.16061382	      0.00000000	      5.00000014
     15.06666667	     -0.48572525	     -8.53866564	     -2.80108266	     -1.61388497	      0.87187064	      0.27780736	     -1.49309272	      8.38491109	      1.26058985	      4.81376820	      0.08401610	      3.56550061	    -14.59374460	      0.00000000	     -2.78042387	    -10.87120424	    -10.54806677	      4.43405669	      0.07738889	      3.60270862	    -14.63782062	      0.00000000	      0.00102265	      0.48632847	      0.13689168	      0.00189916	      0.64681686	      0.14544741	      0.00168011	      1.18245903	      0.14544741	      0.00116879	      1.18245903	      0.11978022	      0.00094963	      0.99172101	      0.11122449	      0.00058434	      0.75332279	      0.10266876	      0.00730468	      5.50144488	      0.76135048	      0.00000000	      0.00000000	     -0.00000000	      0.00000000	     -0.00000000	     -4.66027641	     -0.22854816	    -12.16352723	     29.31643282	     29.82153675	      0.00000000	      5.00000014	     -5.34212197	     12.00890305	    -43.85120144	     45.54891022	     32.95307040	      0.00000000	      5.00000014
     15.10000000	     -0.43048794	     -8.21626015	     -2.58943861	     -1.61366136	      0.87136699	      0.27745870	     -1.47742807	      8.14923897	      1.59176766	      4.93976508	      0.08621516	      3.57098225	    -15.89199109	      0.00000000	     -2.82910364	    -10.47927206	    -10.52570397	      4.24795448	      0.07414079	      3.40030985	    -14.69756771	      0.00000000	      0.00006936	      0.48035680	      0.16382513	      0.00012882	      0.63887455	      0.17406421	      0.00011396	      1.16793953	      0.17406421	      0.00007928	      1.16793953	      0.14334699	      0.00006441	      0.97954359	      0.13310792	      0.00003963	      0.74407269	      0.12286885	      0.00049546	      5.43389223	      0.91114625	      0.00000000	      0.00000000	     -0.00000000	      0.00000000	     -0.00000000	     -4.64092290	      0.48275783	    -18.56218783	     30.84796829	     28.31397406	      0.00000000	      5.00000014	     -5.29428996	     11.92822214	    -43.37897098	     45.50683035	     32.65625284	      0.00000000	      5.00000014
     15.13333333	     -0.35187287	     -7.92317208	     -1.91307467	     -1.61334304	      0.87061105	      0.27686549	     -1.53187490	      7.92619755	      1.07371735	      4.92857606	      0.08601988	      3.72015159	    -16.37893568	      0.00000000	     -2.79119709	    -10.08656982	    -10.05793005	      4.01051464	      0.06999669	      3.12409090	    -14.99768765	      0.00000000	      0.00044753	      0.47135346	      0.12218869	      0.00083111	      0.62690010	      0.12982548	      0.00073525	      1.14604879	      0.12982548	      0.00051148	      1.14604879	      0.10691510	      0.00041558	      0.96118397	      0.09927831	      0.00025572	      0.73012650	      0.09164151	      0.00319667	      5.33204456	      0.67957681	      0.00000000	      0.00000000	     -0.00000000	      0.00000000	     -0.00000000	     -4.61898660	      1.05207324	    -23.85434542	     32.46588646	     27.21566793	      0.00000000	      5.00000014	     -5.24594601	     11.80713975	    -42.83464922	     45.55083599	     32.42041368	      0.00000000	      5.00000014
     15.16666667	     -0.29959916	     -7.79976353	     -1.48046215	     -1.61310966	      0.86985205	      0.27646488	     -1.55126812	      7.86723487	      0.65933283	      4.94560055	      0.08631701	      3.72977476	    -16.70375900	      0.00000000	     -2.85116862	     -9.80388001	     -9.95693192	      3.61612114	      0.06311322	      2.78564744	    -15.22878800	      0.00000000	     -0.00014847	      0.46559021	      0.11572904	     -0.00027572	      0.61923498	      0.12296210	     -0.00024392	      1.13203604	      0.12296210	     -0.00016968	      1.13203604	      0.10126291	     -0.00013787	      0.94943156	      0.09402984	     -0.00008483	      0.72119924	      0.08679678	     -0.00106049	      5.26684957	      0.64365020	      0.00000000	      0.00000000	     -0.00000000	      0.00000000	     -0.00000000	     -4.72714164	      0.83729233	    -24.79426780	     33.58027767	     27.05281617	      0.00000000	      5.00000014	     -5.23069549	     11.86733882	    -42.62392848	     45.91235851	     32.40218916	      0.00000000	      5.00000014
     15.20000000	     -0.28998264	     -7.87026438	     -1.28762059	     -1.61304394	      0.86923132	      0.27598390	     -1.57369582	      7.95176076	      0.61369795	      4.92849336	      0.08601844	      3.73390835	    -16.73597518	      0.00000000	     -2.75412958	     -9.71717212	     -9.94415328	      3.53781402	      0.06174650	      2.79268180	    -15.30613557	      0.00000000	      0.00075102	      0.46281080	      0.13982179	      0.00139473	      0.61553837	      0.14856066	      0.00123386	      1.12527819	      0.14856066	      0.00085835	      1.12527819	      0.12234407	      0.00069740	      0.94376379	      0.11360521	      0.00042914	      0.71689393	      0.10486635	      0.00536449	      5.23540837	      0.77764687	      0.00000000	      0.00000000	     -0.00000000	      0.00000000	     -0.00000000	     -4.66875797	      0.48189874	    -25.00071990	     33.66679225	     27.02359877	      0.00000000	      5.00000014	     -5.13662965	     11.97197327	    -42.55442044	     46.02179646	     32.40564423	      0.00000000	      5.00000014
     15.23333333	     -0.31039652	     -8.35125190	     -0.89816884	     -1.61295446	      0.86865537	      0.27517098	     -1.67419915	      8.48975066	     -0.12707930	      4.68241208	      0.08172351	      3.44304948	    -16.67278606	      0.00000000	     -2.61694680	    -10.02908356	     -8.28160187	      3.34645182	      0.05840660	      2.21584587	    -17.15471387	      0.00000000	      0.00182497	      0.49919974	      0.11830804	      0.00338916	      0.66393565	      0.12570229	      0.00299825	      1.21375425	      0.12570229	      0.00208576	      1.21375425	      0.10351953	      0.00169467	      1.01796811	      0.09612528	      0.00104279	      0.77326040	      0.08873103	      0.01303561	      5.64704730	      0.65799381	      0.00000000	      0.00000000	     -0.00000000	      0.00000000	     -0.00000000	     -4.66547753	      1.17116288	    -29.67318670	     34.75230014	     26.18021498	      0.00000000	      5.00000014	     -5.34307914	     12.17889771	    -41.76396075	     46.69159133	     32.27865452	      0.00000000	      5.00000014
     15.26666667	     -0.35703255	     -8.71739051	     -1.15959173	     -1.61303062	      0.86849309	      0.27499791	     -1.64295925	      8.84102945	     -0.20252982	      4.71490265	      0.08229058	      3.28557365	    -16.53992902	      0.00000000	     -2.53879228	    -10.24711026	     -7.90560987	      3.30183738	      0.05762793	      2.31695810	    -17.45192859	      0.00000000	      0.00115240	      0.51858980	      0.17512178	      0.00214012	      0.68972444	      0.18606689	      0.00189328	      1.26089924	      0.18606689	      0.00131708	      1.26089924	      0.15323156	      0.00107012	      1.05750832	      0.14228645	      0.00065848	      0.80329560	      0.13134134	      0.00823149	      5.86639155	      0.97397482	      0.00000000	      0.00000000	     -0.00000000	      0.00000000	     -0.00000000	     -4.66605647	      0.95967202	    -29.58485501	     34.69649143	     26.17026350	      0.00000000	      5.00000014	     -5.42543534	     12.42902699	    -41.73790687	     47.11817159	     32.25076035	      0.00000000	      5.00000014
     15.30000000	     -0.41707105	     -8.99055560	     -1.53997033	     -1.61314141	      0.86870611	      0.27517875	     -1.59995135	      9.06832073	     -0.21724317	      4.75767905	      0.08303716	      3.12347023	    -16.30327015	      0.00000000	     -2.36174559	    -10.43918585	     -7.29244223	      3.49538178	      0.06100592	      2.47831930	    -17.84339799	      0.00000000	     -0.00011850	      0.53137695	      0.23238008	     -0.00022006	      0.70673134	      0.24690383	     -0.00019468	      1.29198991	      0.24690383	     -0.00013543	      1.29198991	      0.20333257	     -0.00011003	      1.08358387	      0.18880881	     -0.00006771	      0.82310289	      0.17428506	     -0.00084640	      6.01104231	      1.29242828	      0.00000000	      0.00000000	     -0.00000000	      0.00000000	     -0.00000000	     -4.68545987	      0.83970324	    -29.15247987	     34.50646424	     26.20150427	      0.00000000	      5.00000014	     -5.49369828	     12.56686231	    -41.77649757	     47.32598029	     32.20705257	      0.00000000	      5.00000014
